# xmcd
#
# Track frame offsets:
#	150
#	10662
#	20317
#	31450
#	43898
#	56115
#	69808
#	80951
#	107665
#	121342
#	134672
#	151343
#	163332
#	174737
#	186756
#	197706
#
# Disc length: 2779 seconds
#
# Revision: 1
# Processed by: cddbd v1.4PL0 Copyright (c) Steve Scherf et al.
# Submitted via: EasyCDDAExtractor 5.0.7
#
DISCID=df0ad910
DTITLE=Johnny Winter - Premiere Collection CD 1
DYEAR=1900
DGENRE=Country
TTITLE0=That's What Loves Does
TTITLE1=Out Of Sight
TTITLE2=I Can't Believe you Wanna Leave
TTITLE3=Leavin' Blues
TTITLE4=Leave My Woman Alone
TTITLE5=Five After Four AM
TTITLE6=Gangster Of Love
TTITLE7=Going Down Slow
TTITLE8=Low Down Gal Of Mine
TTITLE9=Road Runner
TTITLE10=Kindhearted Woman Blues
TTITLE11=Parchment Farm Blues
TTITLE12=The Guy Behind
TTITLE13=Please Come Home For Christmas
TTITLE14=Livin In The Blues
TTITLE15=My Darling
EXTD=Spawned by WaR\n
EXTT0=
EXTT1=
EXTT2=
EXTT3=
EXTT4=
EXTT5=
EXTT6=
EXTT7=
EXTT8=
EXTT9=
EXTT10=
EXTT11=
EXTT12=
EXTT13=
EXTT14=
EXTT15=
PLAYORDER=
